<mxfile host="Electron" agent="Mozilla/5.0 (X11; Linux x86_64) AppleWebKit/537.36 (KHTML, like Gecko) draw.io/24.7.5 Chrome/126.0.6478.183 Electron/31.3.0 Safari/537.36" version="24.7.5">
  <diagram name="Страница — 1" id="FoYP0xOIlnXVhQBeZhnR">
    <mxGraphModel dx="1434" dy="848" grid="1" gridSize="10" guides="1" tooltips="1" connect="1" arrows="1" fold="1" page="1" pageScale="1" pageWidth="827" pageHeight="1169" math="0" shadow="0">
      <root>
        <mxCell id="0" />
        <mxCell id="1" parent="0" />
        <mxCell id="omvuFLX4dVPphva3dKwd-1" value="Vertical Container" style="swimlane;whiteSpace=wrap;html=1;" vertex="1" parent="1">
          <mxGeometry x="220" width="590" height="717" as="geometry" />
        </mxCell>
        <mxCell id="omvuFLX4dVPphva3dKwd-4" value="Оставил заявку" style="ellipse;whiteSpace=wrap;html=1;" vertex="1" parent="omvuFLX4dVPphva3dKwd-1">
          <mxGeometry x="194" y="40" width="140" height="70" as="geometry" />
        </mxCell>
        <mxCell id="omvuFLX4dVPphva3dKwd-46" style="edgeStyle=orthogonalEdgeStyle;rounded=0;orthogonalLoop=1;jettySize=auto;html=1;dashed=1;" edge="1" parent="omvuFLX4dVPphva3dKwd-1" source="omvuFLX4dVPphva3dKwd-7" target="omvuFLX4dVPphva3dKwd-45">
          <mxGeometry relative="1" as="geometry" />
        </mxCell>
        <mxCell id="omvuFLX4dVPphva3dKwd-7" value="Прием заявки и ее регистр&lt;span style=&quot;background-color: initial;&quot;&gt;ация&lt;/span&gt;" style="ellipse;whiteSpace=wrap;html=1;" vertex="1" parent="omvuFLX4dVPphva3dKwd-1">
          <mxGeometry x="194" y="220" width="140" height="70" as="geometry" />
        </mxCell>
        <mxCell id="omvuFLX4dVPphva3dKwd-21" value="Добавить детали к заявке" style="ellipse;whiteSpace=wrap;html=1;" vertex="1" parent="omvuFLX4dVPphva3dKwd-1">
          <mxGeometry x="400" y="40" width="140" height="70" as="geometry" />
        </mxCell>
        <mxCell id="omvuFLX4dVPphva3dKwd-27" style="edgeStyle=orthogonalEdgeStyle;rounded=0;orthogonalLoop=1;jettySize=auto;html=1;exitX=0;exitY=0.5;exitDx=0;exitDy=0;entryX=1;entryY=0.5;entryDx=0;entryDy=0;dashed=1;" edge="1" parent="omvuFLX4dVPphva3dKwd-1" source="omvuFLX4dVPphva3dKwd-25" target="omvuFLX4dVPphva3dKwd-7">
          <mxGeometry relative="1" as="geometry" />
        </mxCell>
        <mxCell id="omvuFLX4dVPphva3dKwd-48" style="edgeStyle=orthogonalEdgeStyle;rounded=0;orthogonalLoop=1;jettySize=auto;html=1;entryX=1;entryY=0.5;entryDx=0;entryDy=0;dashed=1;" edge="1" parent="omvuFLX4dVPphva3dKwd-1" source="omvuFLX4dVPphva3dKwd-25" target="omvuFLX4dVPphva3dKwd-21">
          <mxGeometry relative="1" as="geometry" />
        </mxCell>
        <mxCell id="omvuFLX4dVPphva3dKwd-25" value="Анализирует заяку" style="ellipse;whiteSpace=wrap;html=1;" vertex="1" parent="omvuFLX4dVPphva3dKwd-1">
          <mxGeometry x="430" y="150" width="140" height="70" as="geometry" />
        </mxCell>
        <mxCell id="omvuFLX4dVPphva3dKwd-32" style="edgeStyle=orthogonalEdgeStyle;rounded=0;orthogonalLoop=1;jettySize=auto;html=1;entryX=0;entryY=0.5;entryDx=0;entryDy=0;dashed=1;" edge="1" parent="omvuFLX4dVPphva3dKwd-1" source="omvuFLX4dVPphva3dKwd-29" target="omvuFLX4dVPphva3dKwd-31">
          <mxGeometry relative="1" as="geometry" />
        </mxCell>
        <mxCell id="omvuFLX4dVPphva3dKwd-29" value="Делает заявку" style="ellipse;whiteSpace=wrap;html=1;" vertex="1" parent="omvuFLX4dVPphva3dKwd-1">
          <mxGeometry x="194" y="355" width="140" height="70" as="geometry" />
        </mxCell>
        <mxCell id="omvuFLX4dVPphva3dKwd-36" style="edgeStyle=orthogonalEdgeStyle;rounded=0;orthogonalLoop=1;jettySize=auto;html=1;exitX=0.5;exitY=1;exitDx=0;exitDy=0;dashed=1;" edge="1" parent="omvuFLX4dVPphva3dKwd-1" source="omvuFLX4dVPphva3dKwd-31" target="omvuFLX4dVPphva3dKwd-33">
          <mxGeometry relative="1" as="geometry" />
        </mxCell>
        <mxCell id="omvuFLX4dVPphva3dKwd-31" value="Заказывает детали для ремонта" style="ellipse;whiteSpace=wrap;html=1;" vertex="1" parent="omvuFLX4dVPphva3dKwd-1">
          <mxGeometry x="380" y="355" width="140" height="70" as="geometry" />
        </mxCell>
        <mxCell id="omvuFLX4dVPphva3dKwd-33" value="Предоставляет отчет о выполнении заявки" style="ellipse;whiteSpace=wrap;html=1;" vertex="1" parent="omvuFLX4dVPphva3dKwd-1">
          <mxGeometry x="380" y="450" width="140" height="70" as="geometry" />
        </mxCell>
        <mxCell id="omvuFLX4dVPphva3dKwd-35" value="Следит за выполнением заяврк мастером" style="ellipse;whiteSpace=wrap;html=1;" vertex="1" parent="omvuFLX4dVPphva3dKwd-1">
          <mxGeometry x="194" y="550" width="140" height="70" as="geometry" />
        </mxCell>
        <mxCell id="omvuFLX4dVPphva3dKwd-38" value="Отлеживает качество работы мастера" style="ellipse;whiteSpace=wrap;html=1;" vertex="1" parent="omvuFLX4dVPphva3dKwd-1">
          <mxGeometry x="380" y="550" width="140" height="70" as="geometry" />
        </mxCell>
        <mxCell id="omvuFLX4dVPphva3dKwd-40" value="Продлевает время заказа решению заказчика" style="ellipse;whiteSpace=wrap;html=1;" vertex="1" parent="omvuFLX4dVPphva3dKwd-1">
          <mxGeometry x="194" y="630" width="140" height="70" as="geometry" />
        </mxCell>
        <mxCell id="omvuFLX4dVPphva3dKwd-43" value="Оставил отзыв" style="ellipse;whiteSpace=wrap;html=1;" vertex="1" parent="omvuFLX4dVPphva3dKwd-1">
          <mxGeometry x="194" y="140" width="140" height="70" as="geometry" />
        </mxCell>
        <mxCell id="omvuFLX4dVPphva3dKwd-45" value="Назначает мастера" style="ellipse;whiteSpace=wrap;html=1;" vertex="1" parent="omvuFLX4dVPphva3dKwd-1">
          <mxGeometry x="400" y="240" width="140" height="70" as="geometry" />
        </mxCell>
        <mxCell id="omvuFLX4dVPphva3dKwd-49" value="Просмотр заявки" style="ellipse;whiteSpace=wrap;html=1;" vertex="1" parent="omvuFLX4dVPphva3dKwd-1">
          <mxGeometry x="20" y="300" width="140" height="70" as="geometry" />
        </mxCell>
        <mxCell id="omvuFLX4dVPphva3dKwd-8" style="edgeStyle=orthogonalEdgeStyle;rounded=0;orthogonalLoop=1;jettySize=auto;html=1;entryX=0;entryY=0.5;entryDx=0;entryDy=0;" edge="1" parent="1" source="omvuFLX4dVPphva3dKwd-5" target="omvuFLX4dVPphva3dKwd-4">
          <mxGeometry relative="1" as="geometry" />
        </mxCell>
        <mxCell id="omvuFLX4dVPphva3dKwd-42" style="edgeStyle=orthogonalEdgeStyle;rounded=0;orthogonalLoop=1;jettySize=auto;html=1;entryX=0.5;entryY=1;entryDx=0;entryDy=0;" edge="1" parent="1" source="omvuFLX4dVPphva3dKwd-5" target="omvuFLX4dVPphva3dKwd-21">
          <mxGeometry relative="1" as="geometry" />
        </mxCell>
        <mxCell id="omvuFLX4dVPphva3dKwd-44" style="edgeStyle=orthogonalEdgeStyle;rounded=0;orthogonalLoop=1;jettySize=auto;html=1;entryX=0;entryY=0.5;entryDx=0;entryDy=0;" edge="1" parent="1" source="omvuFLX4dVPphva3dKwd-5" target="omvuFLX4dVPphva3dKwd-43">
          <mxGeometry relative="1" as="geometry" />
        </mxCell>
        <mxCell id="omvuFLX4dVPphva3dKwd-50" style="edgeStyle=orthogonalEdgeStyle;rounded=0;orthogonalLoop=1;jettySize=auto;html=1;entryX=0.5;entryY=0;entryDx=0;entryDy=0;" edge="1" parent="1" source="omvuFLX4dVPphva3dKwd-5" target="omvuFLX4dVPphva3dKwd-49">
          <mxGeometry relative="1" as="geometry" />
        </mxCell>
        <mxCell id="omvuFLX4dVPphva3dKwd-5" value="Заказчик" style="shape=umlActor;verticalLabelPosition=bottom;verticalAlign=top;html=1;" vertex="1" parent="1">
          <mxGeometry x="130" y="85" width="30" height="60" as="geometry" />
        </mxCell>
        <mxCell id="omvuFLX4dVPphva3dKwd-18" style="edgeStyle=orthogonalEdgeStyle;rounded=0;orthogonalLoop=1;jettySize=auto;html=1;entryX=0;entryY=0.5;entryDx=0;entryDy=0;" edge="1" parent="1" source="omvuFLX4dVPphva3dKwd-17" target="omvuFLX4dVPphva3dKwd-7">
          <mxGeometry relative="1" as="geometry" />
        </mxCell>
        <mxCell id="omvuFLX4dVPphva3dKwd-51" style="edgeStyle=orthogonalEdgeStyle;rounded=0;orthogonalLoop=1;jettySize=auto;html=1;entryX=0;entryY=0.5;entryDx=0;entryDy=0;" edge="1" parent="1" source="omvuFLX4dVPphva3dKwd-17" target="omvuFLX4dVPphva3dKwd-49">
          <mxGeometry relative="1" as="geometry" />
        </mxCell>
        <mxCell id="omvuFLX4dVPphva3dKwd-17" value="Оператор" style="shape=umlActor;verticalLabelPosition=bottom;verticalAlign=top;html=1;" vertex="1" parent="1">
          <mxGeometry x="130" y="225" width="30" height="60" as="geometry" />
        </mxCell>
        <mxCell id="omvuFLX4dVPphva3dKwd-30" style="edgeStyle=orthogonalEdgeStyle;rounded=0;orthogonalLoop=1;jettySize=auto;html=1;entryX=0;entryY=0.5;entryDx=0;entryDy=0;" edge="1" parent="1" source="omvuFLX4dVPphva3dKwd-28" target="omvuFLX4dVPphva3dKwd-29">
          <mxGeometry relative="1" as="geometry" />
        </mxCell>
        <mxCell id="omvuFLX4dVPphva3dKwd-52" style="edgeStyle=orthogonalEdgeStyle;rounded=0;orthogonalLoop=1;jettySize=auto;html=1;entryX=0;entryY=0.5;entryDx=0;entryDy=0;" edge="1" parent="1" source="omvuFLX4dVPphva3dKwd-28" target="omvuFLX4dVPphva3dKwd-49">
          <mxGeometry relative="1" as="geometry" />
        </mxCell>
        <mxCell id="omvuFLX4dVPphva3dKwd-28" value="Мастер" style="shape=umlActor;verticalLabelPosition=bottom;verticalAlign=top;html=1;" vertex="1" parent="1">
          <mxGeometry x="130" y="360" width="30" height="60" as="geometry" />
        </mxCell>
        <mxCell id="omvuFLX4dVPphva3dKwd-37" style="edgeStyle=orthogonalEdgeStyle;rounded=0;orthogonalLoop=1;jettySize=auto;html=1;" edge="1" parent="1" source="omvuFLX4dVPphva3dKwd-34" target="omvuFLX4dVPphva3dKwd-35">
          <mxGeometry relative="1" as="geometry" />
        </mxCell>
        <mxCell id="omvuFLX4dVPphva3dKwd-39" style="edgeStyle=orthogonalEdgeStyle;rounded=0;orthogonalLoop=1;jettySize=auto;html=1;entryX=0.5;entryY=0;entryDx=0;entryDy=0;" edge="1" parent="1" source="omvuFLX4dVPphva3dKwd-34" target="omvuFLX4dVPphva3dKwd-38">
          <mxGeometry relative="1" as="geometry" />
        </mxCell>
        <mxCell id="omvuFLX4dVPphva3dKwd-41" style="edgeStyle=orthogonalEdgeStyle;rounded=0;orthogonalLoop=1;jettySize=auto;html=1;entryX=0;entryY=0.5;entryDx=0;entryDy=0;" edge="1" parent="1" source="omvuFLX4dVPphva3dKwd-34" target="omvuFLX4dVPphva3dKwd-40">
          <mxGeometry relative="1" as="geometry" />
        </mxCell>
        <mxCell id="omvuFLX4dVPphva3dKwd-53" style="edgeStyle=orthogonalEdgeStyle;rounded=0;orthogonalLoop=1;jettySize=auto;html=1;entryX=0.5;entryY=1;entryDx=0;entryDy=0;" edge="1" parent="1" source="omvuFLX4dVPphva3dKwd-34" target="omvuFLX4dVPphva3dKwd-49">
          <mxGeometry relative="1" as="geometry" />
        </mxCell>
        <mxCell id="omvuFLX4dVPphva3dKwd-34" value="Менеджер" style="shape=umlActor;verticalLabelPosition=bottom;verticalAlign=top;html=1;" vertex="1" parent="1">
          <mxGeometry x="130" y="555" width="30" height="60" as="geometry" />
        </mxCell>
      </root>
    </mxGraphModel>
  </diagram>
</mxfile>
